<?xml version="1.0" encoding="utf-8"?>
<!-- Generator: Adobe Illustrator 25.4.1, SVG Export Plug-In . SVG Version: 6.00 Build 0)  -->
<svg version="1.1" id="Layer_1" xmlns="http://www.w3.org/2000/svg" xmlns:xlink="http://www.w3.org/1999/xlink" x="0px" y="0px"
	 viewBox="0 0 837.8 836.3" style="enable-background:new 0 0 837.8 836.3;" xml:space="preserve">
<style type="text/css">
	.st0{fill:#FD0000;}
	.st1{fill:#B12222;}
</style>
<g>
	<path d="M636.6,141.8c-8,5-16,10.2-24.2,15.3c-48.5,29.9-92,65.9-131.4,107c-40.7,42.4-75.6,89.1-104.2,140.5
		c-29.5,52.9-51.4,108.7-61.7,168.6c-8.2,47.1-8.2,94.2,4.4,140.7c12.6,46.5,36.5,85.9,75.2,115.5c1.3,1,2.4,2.1,4.7,4
		c-11.1,1-21,2.4-30.8,2.7c-30.2,1-60.2-1.4-90-7c-5-0.9-6.3-2.8-6.3-7.8c0.1-103.7,0.1-207.3,0.1-311c0-5.2-0.3-10.4,0.1-15.5
		c0.3-4.6-1.5-5.6-5.7-5.6c-32.8,0.1-65.7,0.1-98.5,0c-4.4,0-8.9-0.5-14.3-0.8c1.5-1.7,2.3-2.8,3.3-3.8
		c36.2-36.2,72.3-72.4,108.6-108.4c4.7-4.7,6.8-9.4,6.7-16.2c-0.3-43.3-0.2-86.7-0.1-130c0-4.8,0.7-9.6,0.7-14.4
		c0.1-3.5,2.4-3,4.5-3c21.2,0,42.3,0,63.5,0c1,0,2,0.1,3.7,0.2c0,36.8,0,73.5,0,111.4c79.8-79.8,158.6-158.7,236.9-237.1
		C600.5,105.9,618.4,123.7,636.6,141.8z"/>
	<path class="st0" d="M532.5,425.3c4.2,9,9.1,19.4,14,29.7c6,12.6,11.8,25.4,18.3,37.7c2,3.8,6.2,6.5,9.3,9.7c0.8,0.9,1.9,2,1.9,3
		c-0.1,0.7-1.8,1.9-2.7,1.9c-10.5,0.1-21,0.2-31.5-0.2c-1.6-0.1-3.7-2.5-4.5-4.3c-9-18.8-17.7-37.7-26.6-56.5
		c-2.8-6-5.3-12.2-8.7-17.9c-0.9-1.6-4.4-2-6.7-2.2c-0.7,0-2.2,2.6-2.2,4c0.1,19.7,0.1,39.3,0.6,59c0.2,9.3,3.2,11.9,12.1,13.6
		c1.3,0.2,2.5,1.5,3.7,2.2c-1.4,0.8-2.7,2.2-4.1,2.2c-17.3,0.2-34.7,0.1-52,0c-1.3,0-2.7-1.2-4-1.9c1.3-0.9,2.5-2.4,3.9-2.6
		c8.3-1.6,10.8-4,11.8-12.3c0.4-3.3,0.7-6.6,0.7-10c0-41.3,0-82.7,0-124c0-2.7-0.1-5.3-0.3-8c-1-10.6-2.7-12.4-13.3-14.7
		c-1-0.2-1.7-1.5-2.6-2.2c0.9-0.7,1.8-2,2.8-2.1c5.3-0.2,10.7-0.2,16-0.1c15.8,0.2,31.7,0.3,47.5,0.6c25.8,0.5,37.8,14.4,41.4,38.7
		c2.1,13.9,1.1,28-7.4,39.8C545.3,414.6,538.9,419.1,532.5,425.3z M492.9,377.3C492.9,377.3,492.9,377.3,492.9,377.3
		c0,10.8,0,21.6,0,32.4c0,7.6,0,7.6,7.7,7.5c16.5-0.3,23.7-5.9,27.3-22c2.9-13.2,2.4-26.5-1.5-39.5c-3.2-10.5-10.2-15.9-21.1-16.8
		c-2.5-0.2-5-0.1-7.5-0.4c-3.6-0.4-5,0.9-4.9,4.7C493,354.6,492.9,366,492.9,377.3z"/>
	<path class="st0" d="M713,417.1c0-23.2,0.2-46.3-0.1-69.5c-0.1-9.3-3.8-12.6-13-13.7c-1.1-0.1-2.1-1.4-3.1-2.1
		c0.9-0.8,1.7-2.2,2.6-2.2c21.5,0.3,43-0.3,64.4,1.4c19.5,1.6,32,14.5,40.2,31.4c10.8,22.2,13,45.9,11.1,70.2
		c-1.4,17.6-5.5,34.6-15.5,49.5c-10.4,15.5-25,24.3-43.8,24.9c-18.3,0.6-36.6,0.3-55,0.2c-1.3,0-2.7-1.3-4-1.9
		c1.3-0.9,2.5-2.3,3.9-2.5c8.6-1.4,12-4.3,12.2-12.9L713,417.1z M741.8,339.9c-0.1,1.2-0.3,2.2-0.3,3.1c0,47.5,0.2,94.9,0.1,142.4
		c0,12.2,6.3,14.3,16.2,11.9c6.9-1.6,11.9-6,15.1-12.2c2.5-4.9,4.8-9.9,6.2-15.2c7.4-29.4,7.4-59.1,2.3-88.7
		c-1.6-9-4.7-18.1-8.7-26.3C766.5,342.4,756.5,338.1,741.8,339.9z"/>
	<path class="st0" d="M677,329.8c0,17.5,0,34.7,0,51.8c-0.5,0.1-1,0.2-1.5,0.3c-0.6-1.6-1.3-3.3-1.7-5c-2.1-7.3-3.2-15.1-6.3-22
		c-4.2-9.5-12.1-14.9-22.8-15.2c-5.8-0.2-11.7-0.5-17.5-0.2c-1.3,0.1-3.5,2.1-3.5,3.2c-0.2,22.5-0.1,45,0,67.5
		c0,0.5,0.3,0.9,0.4,1.3c7.8,1.3,14.7-1.4,17.5-9c3.3-9,4.8-18.6,7.1-27.9c0.4-1.5,0.8-3,2.2-4.4c1.1,30.9,1.2,61.7,1,92.4
		c-0.8,0-1.7,0.1-2.5,0.1c-0.5-3.2-0.6-6.4-1.4-9.4c-1.9-7.4-3.6-14.9-6.4-21.9c-2.9-7.4-9.4-9.8-17.6-9.5c-0.1,1.6-0.4,3-0.4,4.4
		c0,18.5,0,37,0.1,55.5c0,2.2,0.1,4.3,0.4,6.5c1,6.4,3.9,9,10.2,9.6c22.2,1.9,37.2-7.9,44.3-29.1c1.6-4.9,2.8-9.9,4.2-14.9
		c0.3-1,0.8-1.9,1.3-3.2c2.1,3.6-0.9,44-3.9,56.4c-1.5,0.1-3.1,0.3-4.7,0.3c-30.3,0-60.7,0-91,0c-1.2,0-2.4,0.2-3.5-0.2
		c-0.9-0.3-2-1.3-2-2c0-0.7,1.1-1.7,1.9-2.2c0.8-0.4,2-0.3,2.9-0.4c6.9-1,10.3-4.4,11.1-11.4c0.4-4,0.6-8,0.6-12
		c0-40.5,0-81,0-121.5c0-3.5-0.2-7-0.4-10.5c-0.6-8.9-4.4-12.7-13.4-13.4c-0.8-0.1-1.6-0.2-2.4-0.3c-0.3-0.5-0.6-1-0.8-1.4
		c1.3-0.9,2.5-2.4,3.8-2.5c4.8-0.3,9.7-0.2,14.5-0.2c25.3,0,50.7,0,76,0C674.1,329.5,675.6,329.7,677,329.8z"/>
	<path class="st1" d="M392.4,692.6c0,9.2-0.1,18.3,0,27.5c0.2,9,2,11.1,10.7,13.5c0.8,0.2,1.4,1.4,2.1,2.1c-0.9,0.6-1.7,1.6-2.6,1.6
		c-3.8,0.2-7.7,0.1-11.5,0.2c-9.8,0-19.7,0.1-29.5-0.1c-1.3,0-2.7-1.2-4-1.8c1.2-0.7,2.4-1.9,3.7-2.1c5.2-0.7,7.5-4.1,8.2-8.7
		c0.6-3.9,0.8-8,0.8-11.9c0.1-37.7,0-75.3,0-113c0-3.5-0.2-7-0.6-10.5c-0.7-5.9-3.1-8.2-9-9.6c-1.2-0.3-2.1-1.5-3.2-2.3
		c1.2-0.6,2.3-1.7,3.5-1.7c13.7-0.1,27.3-0.2,41,0c1.1,0,2.1,1.3,3.2,2c-1,0.7-1.9,1.9-2.9,2c-6.7,0.5-9.8,4.9-9.9,13.2
		c-0.2,13.2-0.2,26.3-0.2,39.5c0,4.5,0.1,9,0,13.5c-0.1,2.5,0.9,3.6,3.5,3.5c8.7-0.1,17.3-0.1,26,0c2.8,0,3.8-1,3.8-3.8
		c-0.1-17.5,0.1-35-0.3-52.5c-0.2-9-1.9-10.6-10.7-13.5c-0.8-0.3-1.4-1.5-2-2.2c0.8-0.6,1.7-1.7,2.5-1.7c14.2-0.1,28.3-0.1,42.5,0.1
		c0.9,0,1.8,1.3,2.7,2.1c-0.8,0.7-1.5,1.7-2.4,1.9c-7.8,2-10.3,4.6-10.3,12.7c-0.1,43-0.1,86,0,129c0,7.6,2.9,10.5,9.9,12.1
		c1,0.2,1.9,1.3,2.8,2c-1.1,0.6-2.3,1.8-3.4,1.8c-10.5,0.1-21,0.1-31.5,0.1c-3.2,0-6.3,0.1-9.5-0.1c-1.1-0.1-2.1-1.1-3.2-1.6
		c0.9-0.7,1.7-1.9,2.7-2.2c6.8-1.7,9.3-3.7,9.5-10.7c0.5-17.1,0.5-34.3,0.7-51.5c0.1-12.1,0-12.1-12.1-12.1c-5.7,0-11.3,0.1-17,0
		c-3.3-0.1-4.3,1.2-4.3,4.4c0.2,9.7,0.1,19.3,0.1,29C392.3,692.6,392.4,692.6,392.4,692.6z"/>
	<path class="st1" d="M566.8,655.7c0.1,23-3.8,45.1-15.9,65.1c-8,13.1-19.1,21.2-35.2,20.2c-13.3-0.8-22.7-7.9-29.7-18.5
		c-9.3-14-13.8-29.8-15.7-46.4c-2.6-22.6-1.8-44.9,6.5-66.4c2.4-6.2,5.5-12.1,8.9-17.8c15.4-25.8,49.6-24.2,64.8-0.1
		C562.8,611.4,566.8,633,566.8,655.7z M542.3,675.6c1.1-8.4,1.3-16.8,0.7-25.3c-1-13.1-1.8-25.4-3.2-37.5
		c-1.1-9.2-3.5-18.4-9.6-25.9c-7-8.6-18.1-8.6-24,0.7c-3.8,5.9-6.9,12.7-8.3,19.5c-6.5,29.9-5.9,60.2-1.9,90.4
		c1.3,10,3.6,20.1,9.7,28.6c6.7,9.2,19.2,9.1,25.1-0.5c3.1-5,5.9-10.7,6.9-16.4C539.5,697.7,540.9,686.3,542.3,675.6z"/>
	<path class="st1" d="M831.2,575.6c0,16.1,0,31.5,0,46.8c-0.4,0.1-0.8,0.2-1.2,0.3c-0.4-1.5-0.9-3.1-1.3-4.6
		c-1.1-5.2-1.8-10.5-3.3-15.6c-2.8-9.4-9-17.5-22.3-18c-13.9-0.5-13.9-1-13.9,12.6c0,16.5,0.1,33-0.1,49.5c-0.1,4.5,1.8,5.1,5.4,4.1
		c5.3-1.5,8.6-5.4,9.9-10.4c1.8-6.9,3-14,4.3-21c0.4-1.9,0.5-3.8,2-5.7c0,27.6,0,55.2,0,82.7c-0.3,0.1-0.7,0.1-1,0.2
		c-0.3-2.1-0.5-4.3-1-6.4c-1.9-7.9-3.5-15.9-6.2-23.5c-1.9-5.3-6.6-7.1-12.7-6.4c-0.2,0.4-0.5,0.9-0.5,1.3c0,19.5-0.1,39,0.2,58.5
		c0.1,6.1,3.2,8.5,9.3,9c16.7,1.3,27.6-7.1,33.2-25.5c1.7-5.5,3-11.1,5.4-16.5c0.1,1.2,0.4,2.3,0.3,3.5c-1.1,14.4-2.3,28.9-3.3,43.3
		c-0.2,2.9-1.3,3.6-4,3.6c-24-0.1-48,0-72-0.2c-1.3,0-2.5-1.3-3.8-2c1.1-0.7,2.2-1.8,3.4-1.9c4.9-0.6,7.5-3.5,8.4-7.9
		c0.7-3.6,0.9-7.3,1-10.9c0.1-39.6,0.1-79.3,0-118.9c0-2.8-0.3-5.7-1-8.4c-1.1-4.1-3.6-7-8.2-7.6c-1.3-0.2-2.4-1.5-3.5-2.3
		c1.4-0.6,2.7-1.6,4.1-1.7c3.8-0.2,7.7-0.1,11.5-0.1c18.2,0,36.3,0,54.5,0C826.7,575.6,828.7,575.6,831.2,575.6z"/>
	<path class="st1" d="M584.4,12.4c5.4,6,10.9,11.9,16.6,17.6c27.6,27.7,55.3,55.3,82.9,83.1c3.2,3.2,5.9,3.2,9.7,1.6
		c10.3-4.2,20.8-8.1,31.2-12.1c4.9-1.9,9.7-4,14.6-6c-0.2-0.6-0.2-1-0.4-1.2c-0.8-0.9-1.6-1.7-2.4-2.5
		c-37.1-34.6-80.1-59.2-128.4-74.7c-7.7-2.5-15.7-4-23.6-6c-2-0.7-4-1.6-6.1-2.1C516-4.2,453.7-2.8,391.6,11.3
		c-52.8,12-102,32.8-148,61.2c-61.7,38.2-113.7,86.9-155.4,146.3C44,281.9,15.5,351.4,4.4,427.8c-10.2,70.7-2.9,139.2,25.8,205
		C49,676,75.7,713.6,110.4,745.5c30.3,27.8,64.7,49,102.8,64.2c1.8,0.7,3.9,0.8,5.9,1.2c0-90,0-179.1,0-269c-64.3,0-128.2,0-192,0
		c3.1-4.9,6.6-8.6,10.2-12.2c30.5-30.5,61.1-60.9,91.6-91.4c28.3-28.2,56.5-56.5,84.7-84.8c3.9-3.9,6.1-8,6.1-14
		c0.1-57.8,0.5-115.6,0.6-173.4c0-5.4,2-6.3,6.7-6.2c52.5,0.1,105,0.1,157.5,0.1c13.6,0,13.6,0,13.6,13.9c0,7.1,0,14.1,0,22.7
		c2.4-2.3,3.9-3.5,5.2-4.8C451.2,144,499,96.3,546.6,48.5c9.8-9.8,20.6-19.2,30.3-29L584.4,12.4z"/>
	<path class="st1" d="M587.8,643.8c0-15.7,0-31.3,0-47c0-2.8-0.3-5.7-0.7-8.5c-0.7-4.7-3-8-8.3-8.6c-1-0.1-1.9-1.3-2.9-2
		c0.9-0.7,1.8-2.1,2.7-2.1c14-0.1,28-0.1,42,0c0.8,0,1.7,1.2,2.5,1.8c-0.9,0.7-1.6,2-2.6,2.2c-8,1.6-9.7,3.2-10.4,11.3
		c-0.4,4.1-0.4,8.3-0.4,12.5c0,28.7-0.1,57.3,0,86c0,6.2-0.2,12.5,1.2,18.4c1.3,5.8,3.7,11.8,7.1,16.7c4.6,6.8,15.7,6.7,22.3,0.7
		c6.7-6.2,9.6-14.4,10.6-23.1c1-8.9,1.6-17.9,1.7-26.9c0.2-24.2,0.2-48.3,0-72.5c0-4.6-0.8-9.3-1.5-13.9c-0.8-4.9-3.8-7.9-8.9-8.9
		c-1.1-0.2-1.9-1.6-2.9-2.5c1-0.6,2-1.7,3.1-1.8c8.5-0.2,17-0.2,25.5,0c0.9,0,1.8,1.3,2.8,2c-0.7,0.7-1.4,2-2.2,2.1
		c-6.7,0.9-8.6,5.9-9.6,11.2c-0.8,4.4-1,8.9-1,13.4c-0.2,27.7,0,55.3-0.4,83c-0.2,13.9-1.4,27.6-9.6,39.7c-13.5,20-41,18.8-52.5-2.4
		c-6.2-11.4-7-23.9-7.2-36.4c-0.3-14.8-0.1-29.7-0.1-44.5C587.8,643.8,587.8,643.8,587.8,643.8z"/>
	<path class="st1" d="M739,573.2c0,17.2,0,34.4,0,51.5c-0.3,0.1-0.7,0.2-1,0.3c-0.4-1.5-1-3-1.3-4.5c-1.9-11.3-4.7-22.2-11.9-31.4
		c-1.6-2.1-3.5-4-5.7-5.6c-7.7-5.6-16.1-3.5-20.6,4.9c-6.4,11.8-3.7,26.7,7.1,37.5c6.8,6.8,14.2,13.1,21.1,19.9
		c17.4,16.9,21.1,37.8,17.2,60.7c-1.7,10.2-5.7,19.4-12.9,27.1c-7.6,8.1-19,9.9-28.8,4.5c-2.5-1.4-4.8-3-7.2-4.5
		c-5.1-3-7.6-2.3-10.4,3c-0.7,1.4-1.4,2.8-3.2,4c0-20,0-40,0-60c0.3-0.1,0.6-0.2,0.9-0.3c0.4,1.4,0.8,2.8,1.1,4.3
		c2,12.2,4.3,24.4,11.2,34.9c2.3,3.6,5.2,7,8.4,9.8c8.1,6.9,18,4.8,23.2-4.4c6.8-12,5.2-28.3-4.8-39.6c-6.3-7.1-13.7-13.1-20.5-19.7
		c-21.2-20.7-26.1-52.9-12.3-79.1c8.3-15.7,22.4-18.9,36.4-8.1c0.1,0.1,0.3,0.2,0.4,0.3c8.2,6.4,9.6,5.8,11.6-4.1
		c0.1-0.6,0.4-1.1,0.7-1.6C738.1,573.1,738.6,573.1,739,573.2z"/>
</g>
</svg>
